<svg xmlns="http://www.w3.org/2000/svg" viewBox="0 0 244.78302 37.870119" fill="#55AAEB" aria-hidden="true" focusable="false">
<defs>
<path id="font_17_29" d="M.7100067 .39068605C.69134017 .41278077 .66400149 .42382813 .6279907 .42382813 .6166585 .42382813 .60466006 .42222087 .59199526 .41900636 .6100006 .44630943 .6190033 .47460938 .6190033 .50390627 .6190033 .5465291 .60033676 .5801595 .56300356 .60479739 .54100039 .6207784 .51900228 .63709 .49700929 .6537323 .4723409 .6703847 .44600425 .67871096 .41799928 .67871096 .39666749 .67871096 .3786672 .6750844 .3639984 .6678314 .34467063 .65793356 .33167015 .652654 .32499696 .6519928 .31900535 .6506602 .30934144 .6526591 .29600526 .6579895 .27467347 .6673279 .2563375 .6719971 .24099732 .6719971 .23233032 .6719971 .22333272 .67099508 .21400452 .6689911 .18800354 .66232809 .16533916 .6446533 .14601135 .6159668 .14134217 .6086324 .13834127 .6046346 .13700867 .6039734 .08633932 .5899658 .052337648 .56595358 .035003663 .53193667 .023671469 .5085907 .023005167 .48458354 .03300476 .45991517 .049006147 .41789247 .07267252 .3948822 .104003909 .3908844L.102996829 .006713867C.102996829-.026631674 .12232971-.053309125 .16099549-.07331848 .20966085-.09599304 .2699941-.108662929 .34199525-.111328128 .3799998-.1126709 .41633607-.108159389 .45100404-.09779358 .485672-.08742777 .51067098-.072881069 .526001-.054153444 .541331-.035435995 .55099996-.017049155 .55500796 .0010070801 .5690053-.0009969076 .5823364-.0019989014 .5950012-.0019989014 .6383362-.0019989014 .6736705 .008712769 .701004 .030136109 .7370046 .05892436 .7550049 .11583456 .7550049 .2008667 .7550049 .29193116 .7400055 .35520426 .7100067 .39068605M.15600586 .53300479C.17467244 .53767397 .19167073 .55167648 .20700073 .5750122 .21566773 .5883382 .2240041 .59600326 .23200989 .5980072 .24067688 .60000106 .2523397 .5976817 .2669983 .5910492 .28766886 .58178207 .30533854 .57714846 .32000733 .57714846 .32667033 .57714846 .33333335 .5778249 .33999635 .57917788 .35132853 .5818736 .3639984 .587265 .37800599 .5953522 .38933818 .60209658 .40266929 .60546877 .41799928 .60546877 .43332926 .60546877 .45166017 .5977783 .47299195 .58239749 .4896647 .56969198 .5060018 .5566508 .5220032 .5432739 .53532919 .5352478 .5429942 .5245463 .54499819 .51116946 .54700216 .4964498 .54300436 .48006187 .53300479 .46200563 .5223338 .4746704 .5093333 .4810028 .4940033 .4810028 .46200053 .4810028 .44066368 .4655609 .42999269 .43467713 .42732749 .42744447 .42299906 .42382813 .41700746 .42382813 .41233827 .42382813 .40500389 .42740885 .39500428 .4345703 .3830007 .4423828 .37399803 .44726563 .36799623 .44921876 .3620046 .45117188 .3563385 .45214845 .35099793 .45214845 .33167015 .45214845 .31300355 .43845115 .29499818 .41105653 .29167176 .40570579 .28667198 .39935813 .27999879 .39201356 .27800498 .39134217 .27634178 .39100648 .27500917 .39100648 .26900736 .39100648 .26300559 .39834086 .25700379 .41300965 .242335 .45100404 .21866863 .47000123 .18600464 .47000123 .18000286 .47000123 .17367046 .46967063 .16700745 .4690094 .13434346 .4630076 .11534119 .46133933 .11000061 .46400453 .10333761 .46933494 .1000061 .47833763 .1000061 .49101258 .1000061 .50833639 .11867269 .5223338 .15600586 .53300479M.66200259 .16299439C.65800479 .1289978 .652003 .108662929 .6439972 .101989749 .6273346 .088663738 .59800216 .085998538 .55599978 .09399414V.31300355C.58533737 .32433573 .60967 .33000184 .6289978 .33000184 .6343282 .33000184 .6383311 .32933555 .64100649 .32800294 .6563365 .30800376 .66400149 .26567079 .66400149 .20100403 .66400149 .18766785 .66333517 .17499797 .66200259 .16299439Z"/>
<path id="font_17_64" d="M.78800967 .6830139 .7649994 .6980133C.7549998 .70467635 .7443339 .7080078 .7330017 .7080078 .7116699 .7080078 .69533798 .6990051 .68400576 .68099978L.54100039 .46299745C.5349986 .45366923 .5319977 .44333903 .5319977 .43200685 .5319977 .42133586 .5346629 .41133628 .5399933 .40200807L.40699769 .21299744C.3809967 .22432964 .35099793 .22999573 .31700135 .22999573 .28233338 .22999573 .24732971 .22398885 .21199036 .2119751 .1599884 .19463094 .117986049 .16927593 .08598328 .13591004 .05399068 .10254415 .037994386 .06818136 .037994386 .032821657 .037994386 .014134725 .042994184-.0035502117 .052993776-.020233155 .06699117-.049591066 .08565775-.075276698 .10899353-.09729004 .1476593-.13399251 .19299317-.15234375 .24499512-.15234375 .2723287-.15234375 .30099488-.14733887 .33099366-.1373291 .43032838-.10397339 .47999574-.03459676 .47999574 .07080078 .47999574 .08214315 .47932945 .093816127 .47799684 .1058197 .47932945 .12850444 .47399903 .14918518 .46200563 .16786194L.5960083 .36099244C.6020101 .35899864 .6080068 .3580017 .6139984 .3580017 .6353404 .3580017 .6516774 .3670044 .66300967 .38500978L.80500796 .602005C.81167098 .6120046 .81500247 .6226705 .81500247 .6340027 .81500247 .6553345 .8060048 .67167159 .78800967 .6830139M.27998353 .0034942628C.25198875-.0054982507 .22466024-.009994507 .19799805-.009994507 .17799886-.009994507 .16032918-.007329305 .14498902-.0019989014 .12232462 .0060068767 .11099243 .018010458 .11099243 .03401184 .11099243 .051345827 .12266032 .07067871 .1459961 .0920105 .16933187 .113342288 .19900005 .13000489 .23500061 .14199829 .26366679 .15133667 .29133097 .15600586 .31799317 .15600586 .36732994 .15600586 .3956655 .14433797 .40299989 .1210022 .41033427 .09900919 .39666749 .07467651 .3619995 .04800415 .33532716 .027333579 .3079885 .012496948 .27998353 .0034942628Z"/>
<path id="font_18_70" d="M.03401184 .27503968 .20399475 .41799928C.21399434 .42666627 .22666423 .43099977 .2420044 .43099977 .26333619 .43099977 .28266398 .4236196 .2999878 .40885926L.33099366 .38371278 .41200257 .4828186C.40800477 .4908549 .40600587 .4995575 .40600587 .5089264 .40600587 .52098086 .40967307 .5313619 .41700746 .5400696L.602005 .7641754C.6113332 .77620956 .6243337 .78222659 .64100649 .78222659 .6563365 .78222659 .67033389 .7768809 .68299868 .7661896 .69900009 .7528229 .70700076 .7364502 .70700076 .71707156 .70700076 .7050476 .70333358 .69435629 .69599917 .68499758L.5110016 .46099855C.4983368 .44499717 .48033653 .43966166 .45700074 .44499208L.37600709 .34700013 .40800477 .3210144C.42999778 .3030192 .44099427 .2813568 .44099427 .25602723 .44099427 .24602764 .43865968 .23703003 .43399049 .22903443L.32299806 .038101198C.30633546 .00944519 .28200279-.0048828127 .25-.0048828127 .22932942-.0048828127 .21066284 .0021158856 .19400025 .016113282L.036010744 .14508057C.014007568 .16307576 .0030059815 .18506877 .0030059815 .21105957 .0030059815 .23638916 .013341268 .25771586 .03401184 .27503968M.6409912 .68800356C.657664 .68800356 .66600039 .6963806 .66600039 .71313479 .66600039 .7305501 .657664 .7392578 .6409912 .7392578 .6243286 .7392578 .6159973 .7305501 .6159973 .71313479 .6159973 .6963806 .6243286 .68800356 .6409912 .68800356M.2639923 .068359378C.2733307 .068359378 .2813314 .073018398 .28799439 .082336429L.3899994 .24404907C.39733378 .2546997 .39533488 .26468406 .3840027 .27400209 .3726705 .2833303 .3633372 .28266398 .3560028 .27200318L.2460022 .11727905C.24133301 .11128744 .23899842 .10429891 .23899842 .09631348 .23899842 .07767741 .24732971 .068359378 .2639923 .068359378M.18400574 .13699341C.19400533 .13699341 .20200603 .14099121 .20800781 .14898682L.32499696 .29899598C.33300273 .30899558 .33133445 .31866456 .31999208 .32800294 .30933128 .33733116 .29966737 .33699546 .29100038 .32699586L.16700745 .18399048C.16100566 .1779887 .15800476 .17098999 .15800476 .16299439 .15800476 .1456604 .16667176 .13699341 .18400574 .13699341M.100997928 .20399475C.11099752 .20399475 .1193339 .20799256 .12600708 .21598816L.2559967 .3540039C.26533509 .36333213 .2643331 .3726654 .25299073 .38200379 .24232991 .391332 .23233032 .391332 .22299195 .38200379L.083999637 .25099183C.07733663 .24432881 .07400513 .23699443 .07400513 .22898865 .07400513 .21232605 .083002727 .20399475 .100997928 .20399475Z"/>
<path id="font_17_62" d="M1.0559998 .07206726 .81399539 .28300477C.79733279 .29767356 .77933248 .30200706 .7599945 .29600526L.24099732 .7548828 .054992677 .5419159C.03366089 .5199229 .022994996 .4959259 .022994996 .46992494 .022994996 .4439341 .031661989 .42160545 .04899597 .40293885L.049987794 .40194703 .050994874 .40093995 .3899994 .099990848C.4106598 .081334438 .43299357 .073003139 .45700074 .07499695 .4849955 .07700094 .5106608 .091669719 .5339966 .119003299 .5333252 .11833191 .56699118 .15833028 .6349945 .23899842L.6719971 .20600891C.6673279 .19867452 .6649933 .19034322 .6649933 .18101502 .6649933 .16435242 .6716614 .1503601 .68499758 .13903809L.92700198-.072891239C.93900558-.08289083 .95200607-.087890628 .9660034-.087890628 .9806722-.087890628 .9926707-.08256022 1.0019989-.071899417L1.0640106-.0019073486C1.0720062 .006749471 1.076004 .017079672 1.076004 .029083252 1.076004 .04574585 1.0693359 .060073854 1.0559998 .07206726M.47299195 .16900635C.46432496 .15900676 .45699565 .15367127 .45100404 .15299988 .44900004 .15299988 .44632975 .15466817 .44299317 .15800476 .44166056 .15866597 .32899476 .2586619 .10499573 .45799256 .10233053 .46132914 .100997928 .46499635 .100997928 .46899415 .100997928 .47432456 .10432943 .48032633 .11099243 .4869995L.11199951 .48799134 .16499329 .5509949C.17299907 .54832968 .19333394 .5446625 .22599793 .5399933 .2513275 .53732809 .26765953 .5326589 .2749939 .5259857 .28232829 .5193227 .28599549 .50632736 .28599549 .4869995 .28599549 .4849955 .28599549 .48132835 .28599549 .47599793 .28599549 .4706675 .28599549 .4666697 .28599549 .46400453 .28599549 .43667094 .29216004 .41750083 .30448915 .40649415 .3168284 .39549766 .33433024 .3899994 .35699464 .3899994 .36099244 .3899994 .36766053 .39033509 .3769989 .39100648 .3856659 .39100648 .3919983 .39100648 .3959961 .39100648 .41400147 .39100648 .42733256 .38717143 .43598939 .37950135 .44465638 .37184144 .449824 .34984336 .4514923 .31350709 .4531606 .2771708 .46165977 .2540029 .47698976 .2440033 .48833213 .23734029 .5066681 .23534139 .5319977 .23800659L.47299195 .16900635Z"/>
<path id="font_18_69" d="M.47200013 .22265625C.4540049 .22265625 .43883769 .22947185 .4264984 .24310303 .4141693 .25674439 .40800477 .27320863 .40800477 .29249574 .40800477 .31111146 .4141693 .3272349 .4264984 .3408661 .43883769 .35450746 .4540049 .36132813 .47200013 .36132813 .4900055 .36132813 .5053406 .35450746 .5180054 .3408661 .53067019 .3272349 .53700259 .31111146 .53700259 .29249574 .53700259 .27320863 .53067019 .25674439 .5180054 .24310303 .5053406 .22947185 .4900055 .22265625 .47200013 .22265625M.029006958 .7858124C.04101054 .79514059 .05401103 .7998047 .06800842 .7998047 .13534038 .7998047 .22267151 .70720419 .33000184 .5220032 .37667338 .5542094 .42800904 .5703125 .4840088 .5703125 .56000778 .5703125 .6251729 .54246017 .6795044 .48675538 .7338359 .4310608 .7610016 .36386109 .7610016 .28515626 .7610016 .20645142 .7338359 .13924663 .6795044 .08354187 .6251729 .02784729 .56000778 0 .4840088 0 .40733848 0 .34200035 .027826945 .28799439 .083480838 .23399861 .13913472 .20700073 .20628357 .20700073 .28492738 .20700073 .34558616 .22399903 .40057374 .2579956 .44989015 .17867024 .51053878 .117004398 .56652328 .07299805 .6178436 .0030008953 .6978302-.011662801 .75381979 .029006958 .7858124M.5130005 .110565189C.5463359 .12259928 .5683339 .13931783 .57899478 .16072083 .5856679 .17342632 .58967086 .19381714 .5910034 .22189331 .592336 .24997966 .5966695 .27071128 .6040039 .28408814 .6219991 .31618247 .6309967 .34326173 .6309967 .36532594 .6309967 .39675904 .6149953 .42551676 .58299258 .45159913 .56632998 .4656372 .54666647 .47265626 .5240021 .47265626 .4893341 .47265626 .45533244 .45777894 .42199708 .4280243 .38867188 .39826966 .3650055 .35998536 .35099793 .3131714 .3456675 .29378257 .34300233 .2743937 .34300233 .25500489 .34300233 .21220906 .35516868 .1760966 .37950135 .14666748 .40383403 .117248538 .43400065 .10253906 .47000123 .10253906 .48399864 .10253906 .4983317 .10521444 .5130005 .110565189M.11099243 .7278595C.11099243 .73714706 .10782369 .7451121 .101486209 .75175479 .0951589 .7583974 .08733114 .76171877 .07800293 .76171877 .06933594 .76171877 .0618337 .7583974 .055496217 .75175479 .049168905 .7451121 .04600525 .73714706 .04600525 .7278595 .04600525 .7185618 .049168905 .71042379 .055496217 .70344546 .0618337 .69647726 .06933594 .69299319 .07800293 .69299319 .08733114 .69299319 .0951589 .69647726 .101486209 .70344546 .10782369 .71042379 .11099243 .7185618 .11099243 .7278595Z"/>
<path id="font_17_18" d="M.8639984 .10292053 .4189911 .5600128C.4123281 .56667587 .4039968 .5700073 .3939972 .5700073 .3846588 .5706685 .37632243 .56733706 .36898805 .5600128L.34799195 .53900149 .16499329 .72558596 .10899353 .67137148 .3560028 .41830445 .32000733 .4149933 .08999634 .651001 .033996583 .59599307 .21899414 .40696717C.20566814 .40430198 .19667053 .39696757 .19200135 .384964 .18667095 .37095643 .18933614 .35862223 .19999695 .34796144L.6459961-.1091156C.6526591-.11644999 .6609904-.12011719 .67099-.12011719 .68032839-.12011719 .68832907-.11678568 .69499209-.11012268L.86299136 .05291748C.86965438 .059580488 .87332156 .06791178 .8739929 .07791138 .8739929 .087249759 .87066146 .09558614 .8639984 .10292053M.30099488 .34402467 .51400759 .3619995 .78900149 .07899475 .67100527-.035690309 .30099488 .34402467Z"/>
<path id="font_17_17" d="M.5890045 .32421876C.56300356 .28555299 .5310008 .25505067 .49299623 .23271179 .45500184 .2103831 .41667176 .19921875 .37800599 .19921875 .358668 .19921875 .34033204 .2020518 .32299806 .2077179L.2669983 .12487793C.2723287 .10570272 .2693278 .08784994 .2579956 .07131958L.14199829-.10574341C.1293335-.12509156 .111333217-.13476563 .08799744-.13476563 .074661258-.13476563 .06266276-.1311086 .052001954-.123794559 .032663984-.11116028 .022994996-.091537479 .022994996-.06492615 .022994996-.05095927 .026662192-.040318807 .033996583-.03300476L.1499939 .14300537C.1613261 .15966797 .17699687 .16900127 .19700623 .17100525L.25300599 .25500489C.22366841 .28902183 .20899964 .3320465 .20899964 .38407899 .20899964 .44077049 .22633362 .49446617 .2610016 .545166 .29032899 .58918258 .32799278 .62569686 .37399293 .65470889 .42000328 .6837311 .4643402 .6982422 .5070038 .6982422 .53567 .6982422 .56066897 .69124349 .58200076 .6772461 .6266683 .6472371 .6490021 .5948995 .6490021 .52023318 .6490021 .44889323 .62900289 .38355509 .5890045 .32421876M.39300538 .3375244 .3889923 .3355255C.3723297 .32954408 .3639984 .3179067 .3639984 .3006134 .3639984 .29063417 .36716209 .28181968 .37348939 .27416993 .37982688 .26652018 .3879954 .2626953 .397995 .2626953 .40133158 .2626953 .40499879 .2633616 .40899659 .2646942L.4149933 .26669313C.48232524 .28930665 .5326589 .33087669 .56599429 .3914032 .59066268 .43596903 .6029968 .48253379 .6029968 .5310974V.53707888C.6029968 .5470581 .59932968 .5555369 .59199526 .56251528 .5846608 .5695038 .57566329 .57299807 .56500247 .57299807 .54033407 .57299807 .5283356 .5613556 .52900698 .5380707 .53033956 .44228617 .4850057 .3754374 .39300538 .3375244Z"/>
<path id="font_18_64" d="M.005004883 .10600281C.013000488 .10600281 .04149882 .13050334 .09049988 .1795044 .13950093 .22850545 .17133586 .25300599 .18600464 .25300599 .18933106 .25300599 .19199626 .252004 .19400025 .25 .19733684 .2460022 .17433675 .21666973 .125 .16200257 .07233683 .104670207 .04600525 .06933594 .04600525 .055999757 .04600525 .050669355 .048339845 .04800415 .053009035 .04800415 .06500244 .04800415 .098332729 .07266744 .15299988 .12199402 .20766704 .17133077 .2386678 .19599915 .2460022 .19599915 .24933879 .19599915 .25100709 .19366455 .25100709 .18899536 .25100709 .17633057 .227005 .14449565 .17900086 .0934906 .1309967 .042495729 .10699463 .012664795 .10699463 .0039978029 .10699463 .001332601 .108662929 0 .11199951 0 .1259969 0 .15366109 .013331096 .19499207 .039993287 .24232483 .069981899 .28199259 .10230509 .31399537 .13696289 .35466514 .18095906 .375 .22161865 .375 .25894166 .375 .27960206 .3686676 .29859416 .3560028 .31591798 .45133973 .39656578 .53467306 .47188316 .6060028 .5418701 .72466537 .6591695 .7839966 .7371521 .7839966 .7758179 .7839966 .7918091 .7766622 .7998047 .7619934 .7998047 .70132449 .7998047 .5529938 .6512044 .31700135 .3540039 .29966737 .3640035 .2813314 .3690033 .2619934 .3690033 .22399903 .3690033 .18266805 .3496704 .13800049 .31100465 .1026713 .27967326 .070002239 .24100749 .039993287 .19500733 .013331096 .15366619 0 .1259969 0 .11199951 0 .10800171 .0016682943 .10600281 .005004883 .10600281Z"/>
<path id="font_17_93" d="M.78500369 .3491211C.78500369 .3637797 .77667239 .3781077 .76000979 .3921051 .75267538 .4194285 .7376709 .44008384 .71499636 .45407105 .70700076 .49871827 .68566897 .52770999 .651001 .54104617 .6276652 .58302816 .597997 .60601809 .56199648 .61001589 .5353343 .6380005 .5036672 .6519928 .46699525 .6519928 .45099388 .6519928 .43466188 .648997 .41799928 .6430054 .3980001 .65183517 .3776652 .65625 .35699464 .65625 .32365928 .65625 .2959951 .6449178 .27400209 .6222534 .2466685 .62158206 .22433472 .61391708 .20700073 .5992584 .19233196 .5872548 .18233235 .57191976 .17700196 .5532532 .1443278 .54125979 .12099203 .52325949 .10699463 .49925233 .09566244 .48059593 .09099833 .45993043 .09300232 .43725587 .08167013 .42526246 .07266744 .41193138 .06599426 .39726258 .044662477 .3819326 .033996583 .36593629 .033996583 .34927369 .03466797 .24127198 .07700094 .15494283 .16099549 .090286258 .19632466 .06361389 .23865764 .042282106 .28799439 .026290894L.28199769 .0022888184C.2959951-.03237915 .33799235-.051045736 .4079895-.053710939 .42866007-.05303955 .44699607-.05104065 .46299745-.047714235 .5016632-.03838603 .5259959-.022059123 .5359955 .0012664795L.53100588 .026260376C.5796712 .0429128 .6216685 .06457011 .6569977 .0912323 .7410024 .15586853 .7836711 .24183147 .78500369 .3491211M.16500855 .39700318C.17500814 .40834556 .17767334 .4210205 .17300415 .43502809 .17033895 .44503785 .1708374 .4533793 .17449951 .4600525 .1781718 .46672569 .18567403 .47206117 .19700623 .47605897 .20633443 .47939555 .21566773 .48239646 .2250061 .48506166 .2416687 .49173484 .25 .50374349 .25 .52108767 .2506714 .52976486 .2526703 .535436 .2559967 .5381012 .2619985 .5434418 .27166749 .54511007 .28500367 .5431061 .30166627 .5404307 .31433106 .5455983 .32299806 .558609 .33166505 .5716197 .34333293 .578125 .3580017 .578125 .3706665 .578125 .38349916 .5742696 .39649964 .56655886 .40950013 .5588481 .42233277 .5583293 .43499757 .56500247 .44633994 .5704956 .4570109 .5732422 .4670105 .5732422 .4850057 .5732422 .49900309 .565567 .5090027 .5502167 .51900228 .53486636 .53266909 .52852889 .55000308 .5312042 .56333926 .53386947 .57534286 .52151998 .5860138 .49415589 .59200546 .48013816 .60233566 .47195945 .6170044 .46961976 .63167318 .46729026 .63900759 .45378114 .63900759 .4290924 .6383362 .4097341 .6473338 .39705406 .66600039 .39105226 .6813304 .38638307 .6876628 .3740336 .68499758 .3540039 .6349996 .31396485 .54266867 .2939453 .40800477 .2939453 .28133647 .2939453 .19500225 .30929057 .14900208 .33998109 .14033509 .34931947 .13600159 .35532127 .13600159 .35798646 .13600159 .36332704 .14567058 .3763326 .16500855 .39700318M.5209961 .3881073C.5009969 .3881073 .4909973 .39780174 .4909973 .41719056 .4903361 .4372406 .50000509 .44726563 .5200043 .44726563 .5393321 .44792686 .55566409 .4412435 .56900027 .42721559 .58100387 .4105021 .5870056 .39512635 .5870056 .38108827 .5870056 .3770803 .5866699 .37340293 .58599856 .37005616 .58466598 .35202027 .57400009 .34399925 .55400088 .34599305 .55000308 .34666444 .5463359 .3480021 .54299929 .3500061 .53566488 .35535685 .5310008 .3640442 .52900698 .37606813 .52966818 .37808229 .52699789 .38209535 .5209961 .3881073M.36099244 .4721222C.34166465 .4714508 .33200074 .48114015 .33200074 .5011902 .33132936 .52057906 .34066264 .53027346 .3600006 .53027346 .3799998 .5309448 .3963318 .5242615 .40899659 .5102234 .42166139 .4941813 .42799378 .47880555 .42799378 .46409608 .42799378 .4600881 .42732749 .45641075 .42599488 .45306397 .42466227 .4356893 .414327 .42766825 .394989 .42900086 .3909912 .42967225 .3873291 .4313456 .3840027 .434021 .3766683 .43936158 .3719991 .44771324 .36999513 .45907594 .36999513 .4610901 .36699424 .46543885 .36099244 .4721222Z"/>
</defs>
<use href="#font_17_29" transform="matrix(29.2823,0,0,-29.2823,220.38422,30.010499)"/>
<use href="#font_17_64" transform="matrix(26.9077,0,0,-26.9077,1.5005493,28.650147)"/>
<use href="#font_18_70" transform="matrix(30.5769,0,0,-30.5769,26.443848,31.778077)"/>
<use href="#font_17_62" transform="matrix(28.1307,0,0,-28.1307,51.76123,29.616944)"/>
<use href="#font_18_69" transform="matrix(28.1307,0,0,-28.1307,84.81482,29.813965)"/>
<use href="#font_17_18" transform="matrix(28.1307,0,0,-28.1307,109.11975,29.616944)"/>
<use href="#font_17_17" transform="matrix(28.1307,0,0,-28.1307,136.80036,29.616944)"/>
<use href="#font_18_64" transform="matrix(29.3538,0,0,-29.3538,157.95465,31.413819)"/>
<use href="#font_17_93" transform="matrix(29.2823,0,0,-29.2823,188.1372,30.010499)"/>
</svg>